# xmcd
#
# Track frame offsets:
#	150
#	22792
#	45470
#	64750
#	85400
#	106520
#	126810
#	145752
#	163307
#	171437
#
# Disc length: 2587 seconds
#
# Revision: 1
# Processed by: cddbd v1.5.1PL0 Copyright (c) Steve Scherf et al.
# Submitted via: CDex 1.50Beta5
#
DISCID=7c0a190a
DTITLE=財津和夫 - 愛はちっとも難しくない
DYEAR=1995
DGENRE=
TTITLE0=愛はちっとも難しくない
TTITLE1=プロポーズの手紙
TTITLE2=約束の海
TTITLE3=君がいない朝
TTITLE4=Everlasting
TTITLE5=愛の森
TTITLE6=別れという愛
TTITLE7=信じない者は救われない
TTITLE8=バタートーストかじって
TTITLE9=ふたりのステージ
EXTD=
EXTT0=
EXTT1=
EXTT2=
EXTT3=
EXTT4=
EXTT5=
EXTT6=
EXTT7=
EXTT8=
EXTT9=
PLAYORDER=
